<svg width="146" height="28" viewBox="0 0 146 28" fill="none" xmlns="http://www.w3.org/2000/svg">
<path d="M0.684998 1.92826C0.684998 1.39263 0.885858 0.93735 1.28758 0.56241C1.6893 0.18747 2.18476 0 2.77395 0C3.36314 0 3.8586 0.18747 4.26032 0.56241C4.66204 0.93735 4.8629 1.39263 4.8629 1.92826C4.8629 2.49067 4.66204 2.95935 4.26032 3.33429C3.8586 3.70923 3.36314 3.8967 2.77395 3.8967C2.18476 3.8967 1.6893 3.70923 1.28758 3.33429C0.885858 2.95935 0.684998 2.49067 0.684998 1.92826ZM0.684998 5.90531C0.684998 5.36968 0.885858 4.901 1.28758 4.49928C1.6893 4.09756 2.18476 3.8967 2.77395 3.8967C3.36314 3.8967 3.8586 4.09756 4.26032 4.49928C4.66204 4.901 4.8629 5.36968 4.8629 5.90531C4.8629 6.46772 4.66204 6.94978 4.26032 7.35151C3.8586 7.75323 3.36314 7.95409 2.77395 7.95409C2.18476 7.95409 1.6893 7.75323 1.28758 7.35151C0.885858 6.94978 0.684998 6.46772 0.684998 5.90531ZM0.684998 9.92252C0.684998 9.3869 0.885858 8.93161 1.28758 8.55667C1.6893 8.15495 2.18476 7.95409 2.77395 7.95409C3.33636 7.95409 3.81843 8.15495 4.22015 8.55667C4.62187 8.93161 4.82273 9.3869 4.82273 9.92252C4.82273 10.4849 4.62187 10.967 4.22015 11.3687C3.81843 11.7437 3.33636 11.9311 2.77395 11.9311C2.18476 11.9311 1.6893 11.7437 1.28758 11.3687C0.885858 10.967 0.684998 10.4849 0.684998 9.92252ZM0.684998 13.9799C0.684998 13.4175 0.885858 12.9354 1.28758 12.5337C1.6893 12.132 2.18476 11.9311 2.77395 11.9311C3.33636 11.9311 3.81843 12.132 4.22015 12.5337C4.62187 12.9354 4.82273 13.4175 4.82273 13.9799C4.82273 14.5423 4.62187 15.0244 4.22015 15.4261C3.81843 15.8278 3.33636 16.0287 2.77395 16.0287C2.18476 16.0287 1.6893 15.8278 1.28758 15.4261C0.885858 15.0244 0.684998 14.5423 0.684998 13.9799ZM0.684998 17.9971C0.684998 17.4347 0.885858 16.966 1.28758 16.5911C1.6893 16.1894 2.17137 15.9885 2.73378 15.9885C3.29619 15.9885 3.77825 16.1894 4.17998 16.5911C4.5817 16.966 4.78256 17.4347 4.78256 17.9971C4.78256 18.5595 4.5817 19.0416 4.17998 19.4433C3.77825 19.8183 3.29619 20.0057 2.73378 20.0057C2.17137 20.0057 1.6893 19.8183 1.28758 19.4433C0.885858 19.0416 0.684998 18.5595 0.684998 17.9971ZM0.684998 22.0143C0.684998 21.4519 0.885858 20.9833 1.28758 20.6083C1.6893 20.2066 2.17137 20.0057 2.73378 20.0057C3.29619 20.0057 3.77825 20.2066 4.17998 20.6083C4.5817 20.9833 4.78256 21.4519 4.78256 22.0143C4.78256 22.5768 4.5817 23.0588 4.17998 23.4605C3.77825 23.8355 3.29619 24.023 2.73378 24.023C2.17137 24.023 1.6893 23.8355 1.28758 23.4605C0.885858 23.0588 0.684998 22.5768 0.684998 22.0143ZM0.684998 25.9914C0.684998 25.4558 0.885858 25.0005 1.28758 24.6255C1.6893 24.2238 2.17137 24.023 2.73378 24.023C3.26941 24.023 3.73808 24.2238 4.1398 24.6255C4.54153 25.0005 4.74239 25.4558 4.74239 25.9914C4.74239 26.5538 4.54153 27.0359 4.1398 27.4376C3.73808 27.8125 3.26941 28 2.73378 28C2.17137 28 1.6893 27.8125 1.28758 27.4376C0.885858 27.0359 0.684998 26.5538 0.684998 25.9914ZM4.98342 5.98565C4.98342 5.47681 5.17089 5.03491 5.54583 4.65997C5.92077 4.28503 6.36266 4.09756 6.87151 4.09756C7.38036 4.09756 7.82225 4.28503 8.19719 4.65997C8.57213 5.03491 8.7596 5.47681 8.7596 5.98565C8.7596 6.52128 8.57213 6.97657 8.19719 7.35151C7.82225 7.72645 7.38036 7.91392 6.87151 7.91392C6.36266 7.91392 5.92077 7.72645 5.54583 7.35151C5.17089 6.97657 4.98342 6.52128 4.98342 5.98565ZM4.8629 9.9627C4.8629 9.40029 5.05037 8.91822 5.42531 8.5165C5.80025 8.11478 6.26893 7.91392 6.83134 7.91392C7.36697 7.91392 7.82225 8.11478 8.19719 8.5165C8.57213 8.91822 8.7596 9.40029 8.7596 9.9627C8.7596 10.5251 8.57213 11.0072 8.19719 11.4089C7.82225 11.8106 7.36697 12.0115 6.83134 12.0115C6.26893 12.0115 5.80025 11.8106 5.42531 11.4089C5.05037 11.0072 4.8629 10.5251 4.8629 9.9627ZM8.71943 13.8996C8.71943 13.3372 8.92029 12.8551 9.32201 12.4534C9.72373 12.0517 10.2058 11.8508 10.7682 11.8508C11.3038 11.8508 11.7725 12.0517 12.1742 12.4534C12.576 12.8551 12.7768 13.3372 12.7768 13.8996C12.7768 14.462 12.576 14.944 12.1742 15.3458C11.7725 15.7475 11.3038 15.9483 10.7682 15.9483C10.2058 15.9483 9.72373 15.7475 9.32201 15.3458C8.92029 14.944 8.71943 14.462 8.71943 13.8996ZM12.7366 17.957C12.7366 17.3945 12.9241 16.9259 13.2991 16.5509C13.7008 16.1492 14.1828 15.9483 14.7453 15.9483C15.3077 15.9483 15.7763 16.1492 16.1513 16.5509C16.553 16.9259 16.7539 17.3945 16.7539 17.957C16.7539 18.5194 16.553 19.0014 16.1513 19.4032C15.7763 19.7781 15.3077 19.9656 14.7453 19.9656C14.1828 19.9656 13.7008 19.7781 13.2991 19.4032C12.9241 19.0014 12.7366 18.5194 12.7366 17.957ZM12.7768 21.9742C12.7768 21.4118 12.9643 20.9431 13.3392 20.5681C13.741 20.1664 14.223 19.9656 14.7854 19.9656C15.3211 19.9656 15.7763 20.1664 16.1513 20.5681C16.553 20.9431 16.7539 21.4118 16.7539 21.9742C16.7539 22.5366 16.553 23.0187 16.1513 23.4204C15.7763 23.7953 15.3211 23.9828 14.7854 23.9828C14.223 23.9828 13.741 23.7953 13.3392 23.4204C12.9643 23.0187 12.7768 22.5366 12.7768 21.9742ZM16.794 26.0316C16.794 25.4959 16.9949 25.0406 17.3966 24.6657C17.7983 24.264 18.2804 24.0631 18.8428 24.0631C19.4052 24.0631 19.8873 24.264 20.289 24.6657C20.6907 25.0406 20.8916 25.4959 20.8916 26.0316C20.8916 26.5672 20.6907 27.0359 20.289 27.4376C19.8873 27.8125 19.4052 28 18.8428 28C18.2804 28 17.7983 27.8125 17.3966 27.4376C16.9949 27.0359 16.794 26.5672 16.794 26.0316ZM16.794 22.0143C16.794 21.4787 16.9949 21.01 17.3966 20.6083C17.7983 20.2066 18.2804 20.0057 18.8428 20.0057C19.4052 20.0057 19.8873 20.2066 20.289 20.6083C20.6907 21.01 20.8916 21.4787 20.8916 22.0143C20.8916 22.5768 20.6907 23.0588 20.289 23.4605C19.8873 23.8623 19.4052 24.0631 18.8428 24.0631C18.2804 24.0631 17.7983 23.8623 17.3966 23.4605C16.9949 23.0588 16.794 22.5768 16.794 22.0143ZM16.794 17.9971C16.794 17.4347 16.9949 16.966 17.3966 16.5911C17.7983 16.1894 18.2938 15.9885 18.883 15.9885C19.4454 15.9885 19.9275 16.1894 20.3292 16.5911C20.7309 16.966 20.9318 17.4347 20.9318 17.9971C20.9318 18.5595 20.7309 19.0416 20.3292 19.4433C19.9275 19.8183 19.4454 20.0057 18.883 20.0057C18.2938 20.0057 17.7983 19.8183 17.3966 19.4433C16.9949 19.0416 16.794 18.5595 16.794 17.9971ZM16.7539 13.9397C16.7539 13.3773 16.9547 12.8953 17.3564 12.4935C17.7582 12.0918 18.2536 11.891 18.8428 11.891C19.432 11.891 19.9275 12.0918 20.3292 12.4935C20.7309 12.8953 20.9318 13.3773 20.9318 13.9397C20.9318 14.5022 20.7309 14.9842 20.3292 15.3859C19.9275 15.7877 19.432 15.9885 18.8428 15.9885C18.2536 15.9885 17.7582 15.7877 17.3564 15.3859C16.9547 14.9842 16.7539 14.5022 16.7539 13.9397ZM16.7539 9.92252C16.7539 9.3869 16.9547 8.93161 17.3564 8.55667C17.7582 8.15495 18.2536 7.95409 18.8428 7.95409C19.4052 7.95409 19.8873 8.15495 20.289 8.55667C20.6907 8.93161 20.8916 9.3869 20.8916 9.92252C20.8916 10.4582 20.6907 10.9268 20.289 11.3286C19.8873 11.7035 19.4052 11.891 18.8428 11.891C18.2536 11.891 17.7582 11.7035 17.3564 11.3286C16.9547 10.9268 16.7539 10.4582 16.7539 9.92252ZM16.794 5.94548C16.794 5.38307 16.9949 4.91439 17.3966 4.53945C17.7983 4.13773 18.2804 3.93687 18.8428 3.93687C19.4052 3.93687 19.8873 4.13773 20.289 4.53945C20.6907 4.91439 20.8916 5.38307 20.8916 5.94548C20.8916 6.50789 20.6907 6.98996 20.289 7.39168C19.8873 7.76662 19.4052 7.95409 18.8428 7.95409C18.2804 7.95409 17.7983 7.76662 17.3966 7.39168C16.9949 6.98996 16.794 6.50789 16.794 5.94548ZM16.794 1.96844C16.794 1.43281 16.9949 0.977522 17.3966 0.602582C17.7983 0.200861 18.2938 0 18.883 0C19.4454 0 19.9275 0.200861 20.3292 0.602582C20.7309 0.977522 20.9318 1.43281 20.9318 1.96844C20.9318 2.50407 20.7309 2.97274 20.3292 3.37446C19.9275 3.7494 19.4454 3.93687 18.883 3.93687C18.2938 3.93687 17.7983 3.7494 17.3966 3.37446C16.9949 2.97274 16.794 2.50407 16.794 1.96844Z" fill="white"/>
<path d="M24.7726 5.98565C24.7726 5.47681 24.9735 5.03491 25.3752 4.65997C25.7769 4.28503 26.259 4.09756 26.8214 4.09756C27.357 4.09756 27.8257 4.28503 28.2274 4.65997C28.6291 5.03491 28.83 5.47681 28.83 5.98565C28.83 6.52128 28.6291 6.97657 28.2274 7.35151C27.8257 7.72645 27.357 7.91392 26.8214 7.91392C26.259 7.91392 25.7769 7.72645 25.3752 7.35151C24.9735 6.97657 24.7726 6.52128 24.7726 5.98565ZM24.7726 9.92252C24.7726 9.3869 24.9735 8.91822 25.3752 8.5165C25.7769 8.11478 26.259 7.91392 26.8214 7.91392C27.357 7.91392 27.8257 8.11478 28.2274 8.5165C28.6291 8.91822 28.83 9.3869 28.83 9.92252C28.83 10.4849 28.6291 10.967 28.2274 11.3687C27.8257 11.7704 27.357 11.9713 26.8214 11.9713C26.259 11.9713 25.7769 11.7704 25.3752 11.3687C24.9735 10.967 24.7726 10.4849 24.7726 9.92252ZM24.7726 13.9799C24.7726 13.4175 24.9735 12.9488 25.3752 12.5739C25.7769 12.1722 26.259 11.9713 26.8214 11.9713C27.3838 11.9713 27.8659 12.1722 28.2676 12.5739C28.6693 12.9488 28.8702 13.4175 28.8702 13.9799C28.8702 14.5423 28.6693 15.0244 28.2676 15.4261C27.8659 15.8011 27.3838 15.9885 26.8214 15.9885C26.259 15.9885 25.7769 15.8011 25.3752 15.4261C24.9735 15.0244 24.7726 14.5423 24.7726 13.9799ZM24.7726 17.9971C24.7726 17.4347 24.9735 16.966 25.3752 16.5911C25.7769 16.1894 26.259 15.9885 26.8214 15.9885C27.3838 15.9885 27.8659 16.1894 28.2676 16.5911C28.6693 16.966 28.8702 17.4347 28.8702 17.9971C28.8702 18.5595 28.6693 19.0416 28.2676 19.4433C27.8659 19.8183 27.3838 20.0057 26.8214 20.0057C26.259 20.0057 25.7769 19.8183 25.3752 19.4433C24.9735 19.0416 24.7726 18.5595 24.7726 17.9971ZM24.7726 22.0143C24.7726 21.4787 24.9735 21.01 25.3752 20.6083C25.7769 20.2066 26.259 20.0057 26.8214 20.0057C27.357 20.0057 27.8257 20.2066 28.2274 20.6083C28.6291 21.01 28.83 21.4787 28.83 22.0143C28.83 22.5768 28.6291 23.0588 28.2274 23.4605C27.8257 23.8623 27.357 24.0631 26.8214 24.0631C26.259 24.0631 25.7769 23.8623 25.3752 23.4605C24.9735 23.0588 24.7726 22.5768 24.7726 22.0143ZM28.83 26.0316C28.83 25.4959 29.0309 25.0406 29.4326 24.6657C29.8343 24.264 30.3164 24.0631 30.8788 24.0631C31.4144 24.0631 31.8831 24.264 32.2848 24.6657C32.6865 25.0406 32.8874 25.4959 32.8874 26.0316C32.8874 26.5672 32.6865 27.0359 32.2848 27.4376C31.8831 27.8125 31.4144 28 30.8788 28C30.3164 28 29.8343 27.8125 29.4326 27.4376C29.0309 27.0359 28.83 26.5672 28.83 26.0316ZM32.8874 26.0316C32.8874 25.4959 33.0749 25.0406 33.4498 24.6657C33.8515 24.2908 34.3336 24.1033 34.896 24.1033C35.4316 24.1033 35.8869 24.2908 36.2618 24.6657C36.6636 25.0406 36.8644 25.4959 36.8644 26.0316C36.8644 26.594 36.6636 27.0627 36.2618 27.4376C35.8869 27.8125 35.4316 28 34.896 28C34.3336 28 33.8515 27.8125 33.4498 27.4376C33.0749 27.0627 32.8874 26.594 32.8874 26.0316ZM36.8644 22.0947C36.8644 21.5323 37.0653 21.0636 37.467 20.6887C37.8687 20.2869 38.3508 20.0861 38.9132 20.0861C39.4488 20.0861 39.9175 20.2869 40.3192 20.6887C40.721 21.0636 40.9218 21.5323 40.9218 22.0947C40.9218 22.6571 40.721 23.1392 40.3192 23.5409C39.9175 23.9158 39.4488 24.1033 38.9132 24.1033C38.3508 24.1033 37.8687 23.9158 37.467 23.5409C37.0653 23.1392 36.8644 22.6571 36.8644 22.0947ZM36.7037 18.0373C36.7037 17.4749 36.9046 16.9928 37.3063 16.5911C37.7348 16.1894 38.2437 15.9885 38.8329 15.9885C39.3953 15.9885 39.8773 16.1894 40.2791 16.5911C40.7076 16.9928 40.9218 17.4749 40.9218 18.0373C40.9218 18.5997 40.7076 19.0818 40.2791 19.4835C39.8773 19.8852 39.3953 20.0861 38.8329 20.0861C38.2437 20.0861 37.7348 19.8852 37.3063 19.4835C36.9046 19.0818 36.7037 18.5997 36.7037 18.0373ZM36.7037 14.0201C36.7037 13.4845 36.9046 13.0292 37.3063 12.6542C37.7348 12.2525 38.2437 12.0517 38.8329 12.0517C39.4221 12.0517 39.9175 12.2525 40.3192 12.6542C40.7477 13.0292 40.962 13.4845 40.962 14.0201C40.962 14.5557 40.7477 15.0244 40.3192 15.4261C39.9175 15.8011 39.4221 15.9885 38.8329 15.9885C38.2437 15.9885 37.7348 15.8011 37.3063 15.4261C36.9046 15.0244 36.7037 14.5557 36.7037 14.0201ZM36.7841 10.0029C36.7841 9.46724 36.9849 8.99856 37.3867 8.59684C37.7884 8.19512 38.2838 7.99426 38.873 7.99426C39.4622 7.99426 39.9577 8.19512 40.3594 8.59684C40.7611 8.99856 40.962 9.46724 40.962 10.0029C40.962 10.5653 40.7611 11.0473 40.3594 11.4491C39.9577 11.8508 39.4622 12.0517 38.873 12.0517C38.2838 12.0517 37.7884 11.8508 37.3867 11.4491C36.9849 11.0473 36.7841 10.5653 36.7841 10.0029ZM36.7841 6.02582C36.7841 5.4902 36.9849 5.03491 37.3867 4.65997C37.7884 4.25825 38.2838 4.05739 38.873 4.05739C39.4622 4.05739 39.9577 4.25825 40.3594 4.65997C40.7611 5.03491 40.962 5.4902 40.962 6.02582C40.962 6.56145 40.7611 7.03013 40.3594 7.43185C39.9577 7.80679 39.4622 7.99426 38.873 7.99426C38.2838 7.99426 37.7884 7.80679 37.3867 7.43185C36.9849 7.03013 36.7841 6.56145 36.7841 6.02582ZM32.807 1.96844C32.807 1.43281 33.0079 0.977522 33.4096 0.602582C33.8113 0.200861 34.2934 0 34.8558 0C35.3914 0 35.8601 0.200861 36.2618 0.602582C36.6636 0.977522 36.8644 1.43281 36.8644 1.96844C36.8644 2.53085 36.6636 3.01291 36.2618 3.41463C35.8601 3.78957 35.3914 3.97704 34.8558 3.97704C34.2934 3.97704 33.8113 3.78957 33.4096 3.41463C33.0079 3.01291 32.807 2.53085 32.807 1.96844ZM28.7095 1.96844C28.7095 1.43281 28.9103 0.977522 29.3121 0.602582C29.7138 0.200861 30.1958 0 30.7583 0C31.3207 0 31.8027 0.200861 32.2045 0.602582C32.6062 0.977522 32.807 1.43281 32.807 1.96844C32.807 2.53085 32.6062 3.01291 32.2045 3.41463C31.8027 3.78957 31.3207 3.97704 30.7583 3.97704C30.1958 3.97704 29.7138 3.78957 29.3121 3.41463C28.9103 3.01291 28.7095 2.53085 28.7095 1.96844Z" fill="white"/>
<path d="M44.8587 1.92826C44.8587 1.39263 45.0595 0.93735 45.4613 0.56241C45.863 0.18747 46.3451 0 46.9075 0C47.4699 0 47.9519 0.18747 48.3537 0.56241C48.7554 0.93735 48.9562 1.39263 48.9562 1.92826C48.9562 2.46389 48.7554 2.91918 48.3537 3.29412C47.9519 3.66906 47.4699 3.85653 46.9075 3.85653C46.3451 3.85653 45.863 3.66906 45.4613 3.29412C45.0595 2.91918 44.8587 2.46389 44.8587 1.92826ZM48.9562 1.92826C48.9562 1.39263 49.1437 0.93735 49.5187 0.56241C49.9204 0.18747 50.4024 0 50.9649 0C51.5273 0 51.9959 0.18747 52.3709 0.56241C52.7726 0.93735 52.9735 1.39263 52.9735 1.92826C52.9735 2.46389 52.7726 2.91918 52.3709 3.29412C51.9959 3.66906 51.5273 3.85653 50.9649 3.85653C50.4024 3.85653 49.9204 3.66906 49.5187 3.29412C49.1437 2.91918 48.9562 2.46389 48.9562 1.92826ZM52.9735 1.92826C52.9735 1.39263 53.1609 0.93735 53.5359 0.56241C53.9376 0.18747 54.4063 0 54.9419 0C55.4775 0 55.9328 0.18747 56.3078 0.56241C56.7095 0.93735 56.9103 1.39263 56.9103 1.92826C56.9103 2.49067 56.7095 2.95935 56.3078 3.33429C55.9328 3.70923 55.4775 3.8967 54.9419 3.8967C54.4063 3.8967 53.9376 3.70923 53.5359 3.33429C53.1609 2.95935 52.9735 2.49067 52.9735 1.92826ZM56.9103 1.92826C56.9103 1.39263 57.1112 0.93735 57.5129 0.56241C57.9146 0.18747 58.3967 0 58.9591 0C59.4947 0 59.9634 0.18747 60.3651 0.56241C60.7669 0.93735 60.9677 1.39263 60.9677 1.92826C60.9677 2.49067 60.7669 2.95935 60.3651 3.33429C59.9634 3.70923 59.4947 3.8967 58.9591 3.8967C58.3967 3.8967 57.9146 3.70923 57.5129 3.33429C57.1112 2.95935 56.9103 2.49067 56.9103 1.92826ZM60.9677 1.96844C60.9677 1.43281 61.1686 0.977522 61.5703 0.602582C61.972 0.200861 62.4541 0 63.0165 0C63.5521 0 64.0208 0.200861 64.4225 0.602582C64.8242 0.977522 65.0251 1.43281 65.0251 1.96844C65.0251 2.50407 64.8242 2.97274 64.4225 3.37446C64.0208 3.7494 63.5521 3.93687 63.0165 3.93687C62.4541 3.93687 61.972 3.7494 61.5703 3.37446C61.1686 2.97274 60.9677 2.50407 60.9677 1.96844ZM52.9333 26.0316C52.9333 25.4959 53.1208 25.0406 53.4957 24.6657C53.8974 24.264 54.3795 24.0631 54.9419 24.0631C55.5043 24.0631 55.973 24.264 56.3479 24.6657C56.7496 25.0406 56.9505 25.4959 56.9505 26.0316C56.9505 26.5672 56.7496 27.0359 56.3479 27.4376C55.973 27.8125 55.5043 28 54.9419 28C54.3795 28 53.8974 27.8125 53.4957 27.4376C53.1208 27.0359 52.9333 26.5672 52.9333 26.0316ZM52.8931 22.0545C52.8931 21.5189 53.094 21.0636 53.4957 20.6887C53.8974 20.2869 54.3795 20.0861 54.9419 20.0861C55.4775 20.0861 55.9462 20.2869 56.3479 20.6887C56.7496 21.0636 56.9505 21.5189 56.9505 22.0545C56.9505 22.6169 56.7496 23.099 56.3479 23.5007C55.9462 23.8757 55.4775 24.0631 54.9419 24.0631C54.3795 24.0631 53.8974 23.8757 53.4957 23.5007C53.094 23.099 52.8931 22.6169 52.8931 22.0545ZM52.8931 18.0373C52.8931 17.5017 53.094 17.033 53.4957 16.6313C53.8974 16.2296 54.3795 16.0287 54.9419 16.0287C55.5043 16.0287 55.9864 16.2296 56.3881 16.6313C56.7898 17.033 56.9907 17.5017 56.9907 18.0373C56.9907 18.5997 56.7898 19.0818 56.3881 19.4835C55.9864 19.8852 55.5043 20.0861 54.9419 20.0861C54.3795 20.0861 53.8974 19.8852 53.4957 19.4835C53.094 19.0818 52.8931 18.5997 52.8931 18.0373ZM52.8529 14.0201C52.8529 13.4845 53.0538 13.0292 53.4555 12.6542C53.8572 12.2525 54.3527 12.0517 54.9419 12.0517C55.5043 12.0517 55.9864 12.2525 56.3881 12.6542C56.7898 13.0292 56.9907 13.4845 56.9907 14.0201C56.9907 14.5825 56.7898 15.0646 56.3881 15.4663C55.9864 15.8412 55.5043 16.0287 54.9419 16.0287C54.3527 16.0287 53.8572 15.8412 53.4555 15.4663C53.0538 15.0646 52.8529 14.5825 52.8529 14.0201ZM52.8529 10.0029C52.8529 9.46724 53.0538 8.99856 53.4555 8.59684C53.8572 8.19512 54.3527 7.99426 54.9419 7.99426C55.5311 7.99426 56.0265 8.19512 56.4283 8.59684C56.83 8.99856 57.0308 9.46724 57.0308 10.0029C57.0308 10.5653 56.83 11.0473 56.4283 11.4491C56.0265 11.8508 55.5311 12.0517 54.9419 12.0517C54.3527 12.0517 53.8572 11.8508 53.4555 11.4491C53.0538 11.0473 52.8529 10.5653 52.8529 10.0029ZM52.8128 6.02582C52.8128 5.4902 53.0136 5.03491 53.4154 4.65997C53.8439 4.25825 54.3527 4.05739 54.9419 4.05739C55.5043 4.05739 55.9864 4.25825 56.3881 4.65997C56.8166 5.03491 57.0308 5.4902 57.0308 6.02582C57.0308 6.56145 56.8166 7.03013 56.3881 7.43185C55.9864 7.80679 55.5043 7.99426 54.9419 7.99426C54.3527 7.99426 53.8439 7.80679 53.4154 7.43185C53.0136 7.03013 52.8128 6.56145 52.8128 6.02582Z" fill="white"/>
<path d="M68.9463 1.92826C68.9463 1.39263 69.1472 0.93735 69.5489 0.56241C69.9506 0.18747 70.4461 0 71.0352 0C71.5977 0 72.0797 0.18747 72.4814 0.56241C72.8832 0.93735 73.084 1.39263 73.084 1.92826C73.084 2.49067 72.8832 2.95935 72.4814 3.33429C72.0797 3.70923 71.5977 3.8967 71.0352 3.8967C70.4461 3.8967 69.9506 3.70923 69.5489 3.33429C69.1472 2.95935 68.9463 2.49067 68.9463 1.92826ZM68.9463 5.86514C68.9463 5.32951 69.1472 4.87422 69.5489 4.49928C69.9506 4.09756 70.4461 3.8967 71.0352 3.8967C71.5977 3.8967 72.0797 4.09756 72.4814 4.49928C72.8832 4.87422 73.084 5.32951 73.084 5.86514C73.084 6.42755 72.8832 6.90961 72.4814 7.31133C72.0797 7.68627 71.5977 7.87374 71.0352 7.87374C70.4461 7.87374 69.9506 7.68627 69.5489 7.31133C69.1472 6.90961 68.9463 6.42755 68.9463 5.86514ZM68.9463 9.92252C68.9463 9.36011 69.1472 8.87805 69.5489 8.47633C69.9506 8.0746 70.4327 7.87374 70.9951 7.87374C71.5307 7.87374 71.9994 8.0746 72.4011 8.47633C72.8028 8.87805 73.0037 9.36011 73.0037 9.92252C73.0037 10.4849 72.8028 10.967 72.4011 11.3687C71.9994 11.7704 71.5307 11.9713 70.9951 11.9713C70.4327 11.9713 69.9506 11.7704 69.5489 11.3687C69.1472 10.967 68.9463 10.4849 68.9463 9.92252ZM68.9463 13.9799C68.9463 13.4175 69.1472 12.9488 69.5489 12.5739C69.9506 12.1722 70.4327 11.9713 70.9951 11.9713C71.5307 11.9713 71.9994 12.1722 72.4011 12.5739C72.8028 12.9488 73.0037 13.4175 73.0037 13.9799C73.0037 14.5423 72.8028 15.0244 72.4011 15.4261C71.9994 15.8011 71.5307 15.9885 70.9951 15.9885C70.4327 15.9885 69.9506 15.8011 69.5489 15.4261C69.1472 15.0244 68.9463 14.5423 68.9463 13.9799ZM68.9463 17.957C68.9463 17.4213 69.1472 16.966 69.5489 16.5911C69.9506 16.1894 70.4327 15.9885 70.9951 15.9885C71.5307 15.9885 71.9994 16.1894 72.4011 16.5911C72.8028 16.966 73.0037 17.4213 73.0037 17.957C73.0037 18.4926 72.8028 18.9613 72.4011 19.363C71.9994 19.7379 71.5307 19.9254 70.9951 19.9254C70.4327 19.9254 69.9506 19.7379 69.5489 19.363C69.1472 18.9613 68.9463 18.4926 68.9463 17.957ZM68.9463 21.934C68.9463 21.3716 69.1472 20.8895 69.5489 20.4878C69.9506 20.0861 70.4327 19.8852 70.9951 19.8852C71.5307 19.8852 71.9994 20.0861 72.4011 20.4878C72.8028 20.8895 73.0037 21.3716 73.0037 21.934C73.0037 22.4964 72.8028 22.9785 72.4011 23.3802C71.9994 23.7819 71.5307 23.9828 70.9951 23.9828C70.4327 23.9828 69.9506 23.7819 69.5489 23.3802C69.1472 22.9785 68.9463 22.4964 68.9463 21.934ZM68.9463 25.9914C68.9463 25.429 69.1472 24.9603 69.5489 24.5854C69.9506 24.1836 70.4327 23.9828 70.9951 23.9828C71.5575 23.9828 72.0396 24.1836 72.4413 24.5854C72.843 24.9603 73.0438 25.429 73.0438 25.9914C73.0438 26.5538 72.843 27.0359 72.4413 27.4376C72.0396 27.8125 71.5575 28 70.9951 28C70.4327 28 69.9506 27.8125 69.5489 27.4376C69.1472 27.0359 68.9463 26.5538 68.9463 25.9914ZM73.1242 13.9799C73.1242 13.4711 73.3117 13.0292 73.6866 12.6542C74.0615 12.2793 74.5302 12.0918 75.0926 12.0918C75.6283 12.0918 76.0835 12.2793 76.4585 12.6542C76.8334 13.0292 77.0209 13.4711 77.0209 13.9799C77.0209 14.5155 76.8334 14.9708 76.4585 15.3458C76.0835 15.7207 75.6283 15.9082 75.0926 15.9082C74.5302 15.9082 74.0615 15.7207 73.6866 15.3458C73.3117 14.9708 73.1242 14.5155 73.1242 13.9799ZM77.0209 13.9799C77.0209 13.4711 77.2217 13.0292 77.6235 12.6542C78.0252 12.2793 78.5207 12.0918 79.1098 12.0918C79.6723 12.0918 80.1543 12.2793 80.556 12.6542C80.9578 13.0292 81.1586 13.4711 81.1586 13.9799C81.1586 14.5155 80.9578 14.9708 80.556 15.3458C80.1543 15.7207 79.6723 15.9082 79.1098 15.9082C78.5207 15.9082 78.0252 15.7207 77.6235 15.3458C77.2217 14.9708 77.0209 14.5155 77.0209 13.9799ZM81.1586 14.0201C81.1586 13.4845 81.3461 13.0292 81.721 12.6542C82.096 12.2793 82.5647 12.0918 83.1271 12.0918C83.6627 12.0918 84.118 12.2793 84.4929 12.6542C84.8679 13.0292 85.0553 13.4845 85.0553 14.0201C85.0553 14.5825 84.8679 15.0512 84.4929 15.4261C84.118 15.8011 83.6627 15.9885 83.1271 15.9885C82.5647 15.9885 82.096 15.8011 81.721 15.4261C81.3461 15.0512 81.1586 14.5825 81.1586 14.0201ZM80.9979 17.957C80.9979 17.4213 81.1988 16.966 81.6005 16.5911C82.0022 16.1894 82.4843 15.9885 83.0467 15.9885C83.5823 15.9885 84.051 16.1894 84.4527 16.5911C84.8545 16.966 85.0553 17.4213 85.0553 17.957C85.0553 18.5194 84.8545 19.0014 84.4527 19.4032C84.051 19.7781 83.5823 19.9656 83.0467 19.9656C82.4843 19.9656 82.0022 19.7781 81.6005 19.4032C81.1988 19.0014 80.9979 18.5194 80.9979 17.957ZM80.9979 21.934C80.9979 21.3984 81.1854 20.9431 81.5603 20.5681C81.9621 20.1664 82.4441 19.9656 83.0065 19.9656C83.569 19.9656 84.0376 20.1664 84.4126 20.5681C84.8143 20.9431 85.0152 21.3984 85.0152 21.934C85.0152 22.4964 84.8143 22.9785 84.4126 23.3802C84.0376 23.7551 83.569 23.9426 83.0065 23.9426C82.4441 23.9426 81.9621 23.7551 81.5603 23.3802C81.1854 22.9785 80.9979 22.4964 80.9979 21.934ZM81.0381 25.9512C81.0381 25.4156 81.2256 24.9469 81.6005 24.5452C82.0022 24.1435 82.4843 23.9426 83.0467 23.9426C83.5823 23.9426 84.0376 24.1435 84.4126 24.5452C84.8143 24.9469 85.0152 25.4156 85.0152 25.9512C85.0152 26.5136 84.8143 26.9957 84.4126 27.3974C84.0376 27.7991 83.5823 28 83.0467 28C82.4843 28 82.0022 27.7991 81.6005 27.3974C81.2256 26.9957 81.0381 26.5136 81.0381 25.9512ZM80.9578 1.92826C80.9578 1.39263 81.1452 0.93735 81.5202 0.56241C81.9219 0.18747 82.404 0 82.9664 0C83.502 0 83.9573 0.18747 84.3322 0.56241C84.7339 0.93735 84.9348 1.39263 84.9348 1.92826C84.9348 2.49067 84.7339 2.95935 84.3322 3.33429C83.9573 3.70923 83.502 3.8967 82.9664 3.8967C82.404 3.8967 81.9219 3.70923 81.5202 3.33429C81.1452 2.95935 80.9578 2.49067 80.9578 1.92826ZM80.9979 5.90531C80.9979 5.36968 81.1988 4.901 81.6005 4.49928C82.0022 4.09756 82.4977 3.8967 83.0869 3.8967C83.6493 3.8967 84.1314 4.09756 84.5331 4.49928C84.9348 4.901 85.1357 5.36968 85.1357 5.90531C85.1357 6.46772 84.9348 6.94978 84.5331 7.35151C84.1314 7.75323 83.6493 7.95409 83.0869 7.95409C82.4977 7.95409 82.0022 7.75323 81.6005 7.35151C81.1988 6.94978 80.9979 6.46772 80.9979 5.90531ZM81.0783 9.9627C81.0783 9.40029 81.2791 8.93161 81.6809 8.55667C82.0826 8.15495 82.5647 7.95409 83.1271 7.95409C83.6627 7.95409 84.1314 8.15495 84.5331 8.55667C84.9348 8.93161 85.1357 9.40029 85.1357 9.9627C85.1357 10.5251 84.9348 11.0072 84.5331 11.4089C84.1314 11.7838 83.6627 11.9713 83.1271 11.9713C82.5647 11.9713 82.0826 11.7838 81.6809 11.4089C81.2791 11.0072 81.0783 10.5251 81.0783 9.9627Z" fill="white"/>
<path d="M89.0324 1.92826C89.0324 1.39263 89.2332 0.93735 89.635 0.56241C90.0367 0.18747 90.5321 0 91.1213 0C91.6837 0 92.1658 0.18747 92.5675 0.56241C92.9692 0.93735 93.1701 1.39263 93.1701 1.92826C93.1701 2.46389 92.9692 2.91918 92.5675 3.29412C92.1658 3.66906 91.6837 3.85653 91.1213 3.85653C90.5321 3.85653 90.0367 3.66906 89.635 3.29412C89.2332 2.91918 89.0324 2.46389 89.0324 1.92826ZM93.1701 1.92826C93.1701 1.39263 93.3576 0.93735 93.7325 0.56241C94.1342 0.18747 94.6163 0 95.1787 0C95.7411 0 96.2098 0.18747 96.5847 0.56241C96.9865 0.93735 97.1873 1.39263 97.1873 1.92826C97.1873 2.46389 96.9865 2.91918 96.5847 3.29412C96.2098 3.66906 95.7411 3.85653 95.1787 3.85653C94.6163 3.85653 94.1342 3.66906 93.7325 3.29412C93.3576 2.91918 93.1701 2.46389 93.1701 1.92826ZM97.1873 1.92826C97.1873 1.39263 97.3748 0.93735 97.7497 0.56241C98.1515 0.18747 98.6335 0 99.1959 0C99.7583 0 100.227 0.18747 100.602 0.56241C101.004 0.93735 101.205 1.39263 101.205 1.92826C101.205 2.46389 101.004 2.91918 100.602 3.29412C100.227 3.66906 99.7583 3.85653 99.1959 3.85653C98.6335 3.85653 98.1515 3.66906 97.7497 3.29412C97.3748 2.91918 97.1873 2.46389 97.1873 1.92826ZM93.0094 5.98565C93.0094 5.39646 93.2103 4.901 93.612 4.49928C94.0137 4.09756 94.4958 3.8967 95.0582 3.8967C95.5938 3.8967 96.0625 4.09756 96.4642 4.49928C96.8659 4.901 97.0668 5.39646 97.0668 5.98565C97.0668 6.57484 96.8659 7.0703 96.4642 7.47202C96.0625 7.87374 95.5938 8.0746 95.0582 8.0746C94.4958 8.0746 94.0137 7.87374 93.612 7.47202C93.2103 7.0703 93.0094 6.57484 93.0094 5.98565ZM93.0094 10.0029C93.0094 9.46724 93.2103 9.01196 93.612 8.63702C94.0405 8.26208 94.5493 8.0746 95.1385 8.0746C95.701 8.0746 96.183 8.26208 96.5847 8.63702C97.0132 9.01196 97.2275 9.46724 97.2275 10.0029C97.2275 10.5653 97.0132 11.034 96.5847 11.4089C96.183 11.7838 95.701 11.9713 95.1385 11.9713C94.5493 11.9713 94.0405 11.7838 93.612 11.4089C93.2103 11.034 93.0094 10.5653 93.0094 10.0029ZM93.0094 13.9397C93.0094 13.4041 93.2103 12.9488 93.612 12.5739C94.0405 12.1722 94.5493 11.9713 95.1385 11.9713C95.701 11.9713 96.183 12.1722 96.5847 12.5739C97.0132 12.9488 97.2275 13.4041 97.2275 13.9397C97.2275 14.4754 97.0132 14.944 96.5847 15.3458C96.183 15.7207 95.701 15.9082 95.1385 15.9082C94.5493 15.9082 94.0405 15.7207 93.612 15.3458C93.2103 14.944 93.0094 14.4754 93.0094 13.9397ZM93.0094 17.9168C93.0094 17.3812 93.2103 16.9125 93.612 16.5108C94.0137 16.109 94.4958 15.9082 95.0582 15.9082C95.6206 15.9082 96.1027 16.109 96.5044 16.5108C96.9061 16.9125 97.107 17.3812 97.107 17.9168C97.107 18.4792 96.9061 18.9613 96.5044 19.363C96.1027 19.7647 95.6206 19.9656 95.0582 19.9656C94.4958 19.9656 94.0137 19.7647 93.612 19.363C93.2103 18.9613 93.0094 18.4792 93.0094 17.9168ZM92.9692 21.9742C92.9692 21.4385 93.1701 20.9699 93.5718 20.5681C93.9735 20.1664 94.469 19.9656 95.0582 19.9656C95.6206 19.9656 96.1027 20.1664 96.5044 20.5681C96.9061 20.9699 97.107 21.4385 97.107 21.9742C97.107 22.5366 96.9061 23.0187 96.5044 23.4204C96.1027 23.8221 95.6206 24.023 95.0582 24.023C94.469 24.023 93.9735 23.8221 93.5718 23.4204C93.1701 23.0187 92.9692 22.5366 92.9692 21.9742ZM89.0324 26.0316C89.0324 25.4959 89.2332 25.0406 89.635 24.6657C90.0367 24.2908 90.5187 24.1033 91.0812 24.1033C91.6436 24.1033 92.1256 24.2908 92.5274 24.6657C92.9291 25.0406 93.1299 25.4959 93.1299 26.0316C93.1299 26.594 92.9291 27.0627 92.5274 27.4376C92.1256 27.8125 91.6436 28 91.0812 28C90.5187 28 90.0367 27.8125 89.635 27.4376C89.2332 27.0627 89.0324 26.594 89.0324 26.0316ZM93.1299 26.0316C93.1299 25.4959 93.3174 25.0406 93.6923 24.6657C94.0941 24.2908 94.5627 24.1033 95.0984 24.1033C95.634 24.1033 96.0893 24.2908 96.4642 24.6657C96.8659 25.0406 97.0668 25.4959 97.0668 26.0316C97.0668 26.594 96.8659 27.0627 96.4642 27.4376C96.0893 27.8125 95.634 28 95.0984 28C94.5627 28 94.0941 27.8125 93.6923 27.4376C93.3174 27.0627 93.1299 26.594 93.1299 26.0316ZM97.0668 26.0717C97.0668 25.5361 97.2677 25.0808 97.6694 24.7059C98.0711 24.3309 98.5532 24.1435 99.1156 24.1435C99.6512 24.1435 100.12 24.3309 100.522 24.7059C100.923 25.0808 101.124 25.5361 101.124 26.0717C101.124 26.6074 100.923 27.0627 100.522 27.4376C100.12 27.8125 99.6512 28 99.1156 28C98.5532 28 98.0711 27.8125 97.6694 27.4376C97.2677 27.0627 97.0668 26.6074 97.0668 26.0717Z" fill="white"/>
<path d="M105.078 1.92826C105.078 1.39263 105.279 0.93735 105.68 0.56241C106.082 0.18747 106.577 0 107.167 0C107.756 0 108.251 0.18747 108.653 0.56241C109.055 0.93735 109.256 1.39263 109.256 1.92826C109.256 2.49067 109.055 2.95935 108.653 3.33429C108.251 3.70923 107.756 3.8967 107.167 3.8967C106.577 3.8967 106.082 3.70923 105.68 3.33429C105.279 2.95935 105.078 2.49067 105.078 1.92826ZM105.078 5.90531C105.078 5.36968 105.279 4.901 105.68 4.49928C106.082 4.09756 106.577 3.8967 107.167 3.8967C107.756 3.8967 108.251 4.09756 108.653 4.49928C109.055 4.901 109.256 5.36968 109.256 5.90531C109.256 6.46772 109.055 6.94978 108.653 7.35151C108.251 7.75323 107.756 7.95409 107.167 7.95409C106.577 7.95409 106.082 7.75323 105.68 7.35151C105.279 6.94978 105.078 6.46772 105.078 5.90531ZM105.078 9.92252C105.078 9.3869 105.279 8.93161 105.68 8.55667C106.082 8.15495 106.577 7.95409 107.167 7.95409C107.729 7.95409 108.211 8.15495 108.613 8.55667C109.015 8.93161 109.215 9.3869 109.215 9.92252C109.215 10.4849 109.015 10.967 108.613 11.3687C108.211 11.7437 107.729 11.9311 107.167 11.9311C106.577 11.9311 106.082 11.7437 105.68 11.3687C105.279 10.967 105.078 10.4849 105.078 9.92252ZM105.078 13.9799C105.078 13.4175 105.279 12.9354 105.68 12.5337C106.082 12.132 106.577 11.9311 107.167 11.9311C107.729 11.9311 108.211 12.132 108.613 12.5337C109.015 12.9354 109.215 13.4175 109.215 13.9799C109.215 14.5423 109.015 15.0244 108.613 15.4261C108.211 15.8278 107.729 16.0287 107.167 16.0287C106.577 16.0287 106.082 15.8278 105.68 15.4261C105.279 15.0244 105.078 14.5423 105.078 13.9799ZM105.078 17.9971C105.078 17.4347 105.279 16.966 105.68 16.5911C106.082 16.1894 106.564 15.9885 107.126 15.9885C107.689 15.9885 108.171 16.1894 108.573 16.5911C108.974 16.966 109.175 17.4347 109.175 17.9971C109.175 18.5595 108.974 19.0416 108.573 19.4433C108.171 19.8183 107.689 20.0057 107.126 20.0057C106.564 20.0057 106.082 19.8183 105.68 19.4433C105.279 19.0416 105.078 18.5595 105.078 17.9971ZM105.078 22.0143C105.078 21.4519 105.279 20.9833 105.68 20.6083C106.082 20.2066 106.564 20.0057 107.126 20.0057C107.689 20.0057 108.171 20.2066 108.573 20.6083C108.974 20.9833 109.175 21.4519 109.175 22.0143C109.175 22.5768 108.974 23.0588 108.573 23.4605C108.171 23.8355 107.689 24.023 107.126 24.023C106.564 24.023 106.082 23.8355 105.68 23.4605C105.279 23.0588 105.078 22.5768 105.078 22.0143ZM105.078 25.9914C105.078 25.4558 105.279 25.0005 105.68 24.6255C106.082 24.2238 106.564 24.023 107.126 24.023C107.662 24.023 108.131 24.2238 108.533 24.6255C108.934 25.0005 109.135 25.4558 109.135 25.9914C109.135 26.5538 108.934 27.0359 108.533 27.4376C108.131 27.8125 107.662 28 107.126 28C106.564 28 106.082 27.8125 105.68 27.4376C105.279 27.0359 105.078 26.5538 105.078 25.9914ZM109.376 5.98565C109.376 5.47681 109.564 5.03491 109.939 4.65997C110.313 4.28503 110.755 4.09756 111.264 4.09756C111.773 4.09756 112.215 4.28503 112.59 4.65997C112.965 5.03491 113.152 5.47681 113.152 5.98565C113.152 6.52128 112.965 6.97657 112.59 7.35151C112.215 7.72645 111.773 7.91392 111.264 7.91392C110.755 7.91392 110.313 7.72645 109.939 7.35151C109.564 6.97657 109.376 6.52128 109.376 5.98565ZM109.256 9.9627C109.256 9.40029 109.443 8.91822 109.818 8.5165C110.193 8.11478 110.662 7.91392 111.224 7.91392C111.76 7.91392 112.215 8.11478 112.59 8.5165C112.965 8.91822 113.152 9.40029 113.152 9.9627C113.152 10.5251 112.965 11.0072 112.59 11.4089C112.215 11.8106 111.76 12.0115 111.224 12.0115C110.662 12.0115 110.193 11.8106 109.818 11.4089C109.443 11.0072 109.256 10.5251 109.256 9.9627ZM113.112 13.8996C113.112 13.3372 113.313 12.8551 113.715 12.4534C114.116 12.0517 114.598 11.8508 115.161 11.8508C115.697 11.8508 116.165 12.0517 116.567 12.4534C116.969 12.8551 117.17 13.3372 117.17 13.8996C117.17 14.462 116.969 14.944 116.567 15.3458C116.165 15.7475 115.697 15.9483 115.161 15.9483C114.598 15.9483 114.116 15.7475 113.715 15.3458C113.313 14.944 113.112 14.462 113.112 13.8996ZM117.129 17.957C117.129 17.3945 117.317 16.9259 117.692 16.5509C118.093 16.1492 118.576 15.9483 119.138 15.9483C119.7 15.9483 120.169 16.1492 120.544 16.5509C120.946 16.9259 121.147 17.3945 121.147 17.957C121.147 18.5194 120.946 19.0014 120.544 19.4032C120.169 19.7781 119.7 19.9656 119.138 19.9656C118.576 19.9656 118.093 19.7781 117.692 19.4032C117.317 19.0014 117.129 18.5194 117.129 17.957ZM117.17 21.9742C117.17 21.4118 117.357 20.9431 117.732 20.5681C118.134 20.1664 118.616 19.9656 119.178 19.9656C119.714 19.9656 120.169 20.1664 120.544 20.5681C120.946 20.9431 121.147 21.4118 121.147 21.9742C121.147 22.5366 120.946 23.0187 120.544 23.4204C120.169 23.7953 119.714 23.9828 119.178 23.9828C118.616 23.9828 118.134 23.7953 117.732 23.4204C117.357 23.0187 117.17 22.5366 117.17 21.9742ZM121.187 26.0316C121.187 25.4959 121.388 25.0406 121.789 24.6657C122.191 24.264 122.673 24.0631 123.236 24.0631C123.798 24.0631 124.28 24.264 124.682 24.6657C125.083 25.0406 125.284 25.4959 125.284 26.0316C125.284 26.5672 125.083 27.0359 124.682 27.4376C124.28 27.8125 123.798 28 123.236 28C122.673 28 122.191 27.8125 121.789 27.4376C121.388 27.0359 121.187 26.5672 121.187 26.0316ZM121.187 22.0143C121.187 21.4787 121.388 21.01 121.789 20.6083C122.191 20.2066 122.673 20.0057 123.236 20.0057C123.798 20.0057 124.28 20.2066 124.682 20.6083C125.083 21.01 125.284 21.4787 125.284 22.0143C125.284 22.5768 125.083 23.0588 124.682 23.4605C124.28 23.8623 123.798 24.0631 123.236 24.0631C122.673 24.0631 122.191 23.8623 121.789 23.4605C121.388 23.0588 121.187 22.5768 121.187 22.0143ZM121.187 17.9971C121.187 17.4347 121.388 16.966 121.789 16.5911C122.191 16.1894 122.687 15.9885 123.276 15.9885C123.838 15.9885 124.32 16.1894 124.722 16.5911C125.124 16.966 125.324 17.4347 125.324 17.9971C125.324 18.5595 125.124 19.0416 124.722 19.4433C124.32 19.8183 123.838 20.0057 123.276 20.0057C122.687 20.0057 122.191 19.8183 121.789 19.4433C121.388 19.0416 121.187 18.5595 121.187 17.9971ZM121.147 13.9397C121.147 13.3773 121.347 12.8953 121.749 12.4935C122.151 12.0918 122.646 11.891 123.236 11.891C123.825 11.891 124.32 12.0918 124.722 12.4935C125.124 12.8953 125.324 13.3773 125.324 13.9397C125.324 14.5022 125.124 14.9842 124.722 15.3859C124.32 15.7877 123.825 15.9885 123.236 15.9885C122.646 15.9885 122.151 15.7877 121.749 15.3859C121.347 14.9842 121.147 14.5022 121.147 13.9397ZM121.147 9.92252C121.147 9.3869 121.347 8.93161 121.749 8.55667C122.151 8.15495 122.646 7.95409 123.236 7.95409C123.798 7.95409 124.28 8.15495 124.682 8.55667C125.083 8.93161 125.284 9.3869 125.284 9.92252C125.284 10.4582 125.083 10.9268 124.682 11.3286C124.28 11.7035 123.798 11.891 123.236 11.891C122.646 11.891 122.151 11.7035 121.749 11.3286C121.347 10.9268 121.147 10.4582 121.147 9.92252ZM121.187 5.94548C121.187 5.38307 121.388 4.91439 121.789 4.53945C122.191 4.13773 122.673 3.93687 123.236 3.93687C123.798 3.93687 124.28 4.13773 124.682 4.53945C125.083 4.91439 125.284 5.38307 125.284 5.94548C125.284 6.50789 125.083 6.98996 124.682 7.39168C124.28 7.76662 123.798 7.95409 123.236 7.95409C122.673 7.95409 122.191 7.76662 121.789 7.39168C121.388 6.98996 121.187 6.50789 121.187 5.94548ZM121.187 1.96844C121.187 1.43281 121.388 0.977522 121.789 0.602582C122.191 0.200861 122.687 0 123.276 0C123.838 0 124.32 0.200861 124.722 0.602582C125.124 0.977522 125.324 1.43281 125.324 1.96844C125.324 2.50407 125.124 2.97274 124.722 3.37446C124.32 3.7494 123.838 3.93687 123.276 3.93687C122.687 3.93687 122.191 3.7494 121.789 3.37446C121.388 2.97274 121.187 2.50407 121.187 1.96844Z" fill="white"/>
<path d="M129.165 5.90531C129.165 5.36968 129.366 4.91439 129.768 4.53945C130.17 4.13773 130.665 3.93687 131.254 3.93687C131.843 3.93687 132.339 4.13773 132.741 4.53945C133.142 4.91439 133.343 5.36968 133.343 5.90531C133.343 6.44094 133.142 6.90961 132.741 7.31133C132.339 7.68627 131.843 7.87374 131.254 7.87374C130.665 7.87374 130.17 7.68627 129.768 7.31133C129.366 6.90961 129.165 6.44094 129.165 5.90531ZM129.165 9.92252C129.165 9.36011 129.366 8.87805 129.768 8.47633C130.17 8.0746 130.665 7.87374 131.254 7.87374C131.843 7.87374 132.339 8.0746 132.741 8.47633C133.142 8.87805 133.343 9.36011 133.343 9.92252C133.343 10.4849 133.142 10.967 132.741 11.3687C132.339 11.7704 131.843 11.9713 131.254 11.9713C130.665 11.9713 130.17 11.7704 129.768 11.3687C129.366 10.967 129.165 10.4849 129.165 9.92252ZM129.165 13.9397C129.165 13.4041 129.366 12.9488 129.768 12.5739C130.17 12.1722 130.652 11.9713 131.214 11.9713C131.776 11.9713 132.259 12.1722 132.66 12.5739C133.062 12.9488 133.263 13.4041 133.263 13.9397C133.263 14.5022 133.062 14.9842 132.66 15.3859C132.259 15.7609 131.776 15.9483 131.214 15.9483C130.652 15.9483 130.17 15.7609 129.768 15.3859C129.366 14.9842 129.165 14.5022 129.165 13.9397ZM129.165 17.9971C129.165 17.4347 129.366 16.9527 129.768 16.5509C130.17 16.1492 130.652 15.9483 131.214 15.9483C131.776 15.9483 132.259 16.1492 132.66 16.5509C133.062 16.9527 133.263 17.4347 133.263 17.9971C133.263 18.5595 133.062 19.0416 132.66 19.4433C132.259 19.8451 131.776 20.0459 131.214 20.0459C130.652 20.0459 130.17 19.8451 129.768 19.4433C129.366 19.0416 129.165 18.5595 129.165 17.9971ZM129.165 22.0545C129.165 21.4921 129.353 21.0234 129.728 20.6485C130.129 20.2468 130.611 20.0459 131.174 20.0459C131.736 20.0459 132.205 20.2468 132.58 20.6485C132.982 21.0234 133.183 21.4921 133.183 22.0545C133.183 22.6169 132.982 23.099 132.58 23.5007C132.205 23.8757 131.736 24.0631 131.174 24.0631C130.611 24.0631 130.129 23.8757 129.728 23.5007C129.353 23.099 129.165 22.6169 129.165 22.0545ZM133.183 26.0316C133.183 25.4959 133.383 25.0406 133.785 24.6657C134.187 24.264 134.682 24.0631 135.271 24.0631C135.834 24.0631 136.316 24.264 136.718 24.6657C137.119 25.0406 137.32 25.4959 137.32 26.0316C137.32 26.5672 137.119 27.0359 136.718 27.4376C136.316 27.8125 135.834 28 135.271 28C134.682 28 134.187 27.8125 133.785 27.4376C133.383 27.0359 133.183 26.5672 133.183 26.0316ZM137.32 26.0316C137.32 25.4959 137.508 25.0406 137.883 24.6657C138.258 24.264 138.726 24.0631 139.289 24.0631C139.824 24.0631 140.28 24.264 140.655 24.6657C141.029 25.0406 141.217 25.4959 141.217 26.0316C141.217 26.5672 141.029 27.0359 140.655 27.4376C140.28 27.8125 139.824 28 139.289 28C138.726 28 138.258 27.8125 137.883 27.4376C137.508 27.0359 137.32 26.5672 137.32 26.0316ZM141.217 26.0316C141.217 25.4959 141.418 25.0406 141.82 24.6657C142.221 24.264 142.703 24.0631 143.266 24.0631C143.801 24.0631 144.27 24.264 144.672 24.6657C145.073 25.0406 145.274 25.4959 145.274 26.0316C145.274 26.5672 145.073 27.0359 144.672 27.4376C144.27 27.8125 143.801 28 143.266 28C142.703 28 142.221 27.8125 141.82 27.4376C141.418 27.0359 141.217 26.5672 141.217 26.0316ZM141.137 22.0545C141.137 21.5189 141.337 21.0636 141.739 20.6887C142.141 20.2869 142.623 20.0861 143.185 20.0861C143.721 20.0861 144.19 20.2869 144.591 20.6887C144.993 21.0636 145.194 21.5189 145.194 22.0545C145.194 22.5901 144.993 23.0588 144.591 23.4605C144.19 23.8355 143.721 24.023 143.185 24.023C142.623 24.023 142.141 23.8355 141.739 23.4605C141.337 23.0588 141.137 22.5901 141.137 22.0545ZM141.137 18.0775C141.137 17.5151 141.337 17.0464 141.739 16.6714C142.141 16.2697 142.636 16.0689 143.226 16.0689C143.788 16.0689 144.27 16.2697 144.672 16.6714C145.073 17.0464 145.274 17.5151 145.274 18.0775C145.274 18.6399 145.073 19.122 144.672 19.5237C144.27 19.8986 143.788 20.0861 143.226 20.0861C142.636 20.0861 142.141 19.8986 141.739 19.5237C141.337 19.122 141.137 18.6399 141.137 18.0775ZM141.137 14.0603C141.137 13.4978 141.337 13.0292 141.739 12.6542C142.141 12.2525 142.636 12.0517 143.226 12.0517C143.788 12.0517 144.27 12.2525 144.672 12.6542C145.073 13.0292 145.274 13.4978 145.274 14.0603C145.274 14.6227 145.073 15.1047 144.672 15.5065C144.27 15.8814 143.788 16.0689 143.226 16.0689C142.636 16.0689 142.141 15.8814 141.739 15.5065C141.337 15.1047 141.137 14.6227 141.137 14.0603ZM137.119 14.0201C137.119 13.4845 137.307 13.0292 137.682 12.6542C138.084 12.2525 138.566 12.0517 139.128 12.0517C139.69 12.0517 140.159 12.2525 140.534 12.6542C140.936 13.0292 141.137 13.4845 141.137 14.0201C141.137 14.5557 140.936 15.0244 140.534 15.4261C140.159 15.8011 139.69 15.9885 139.128 15.9885C138.566 15.9885 138.084 15.8011 137.682 15.4261C137.307 15.0244 137.119 14.5557 137.119 14.0201ZM133.022 1.96844C133.022 1.43281 133.223 0.977522 133.624 0.602582C134.026 0.200861 134.522 0 135.111 0C135.673 0 136.155 0.200861 136.557 0.602582C136.959 0.977522 137.16 1.43281 137.16 1.96844C137.16 2.53085 136.959 3.01291 136.557 3.41463C136.155 3.78957 135.673 3.97704 135.111 3.97704C134.522 3.97704 134.026 3.78957 133.624 3.41463C133.223 3.01291 133.022 2.53085 133.022 1.96844ZM137.28 1.92826C137.28 1.39263 137.468 0.93735 137.842 0.56241C138.244 0.18747 138.726 0 139.289 0C139.824 0 140.28 0.18747 140.655 0.56241C141.056 0.93735 141.257 1.39263 141.257 1.92826C141.257 2.46389 141.056 2.91918 140.655 3.29412C140.28 3.66906 139.824 3.85653 139.289 3.85653C138.726 3.85653 138.244 3.66906 137.842 3.29412C137.468 2.91918 137.28 2.46389 137.28 1.92826ZM141.137 5.82496C141.137 5.26255 141.337 4.78049 141.739 4.37877C142.141 3.97704 142.636 3.77618 143.226 3.77618C143.815 3.77618 144.31 3.97704 144.712 4.37877C145.114 4.78049 145.315 5.26255 145.315 5.82496C145.315 6.41416 145.114 6.90961 144.712 7.31133C144.31 7.71306 143.815 7.91392 143.226 7.91392C142.636 7.91392 142.141 7.71306 141.739 7.31133C141.337 6.90961 141.137 6.41416 141.137 5.82496Z" fill="white"/>
</svg>
